<?xml version="1.0" encoding="utf-8"?>
<!-- Generator: Adobe Illustrator 21.0.0, SVG Export Plug-In . SVG Version: 6.00 Build 0)  -->
<svg version="1.1" id="Layer_1" xmlns="http://www.w3.org/2000/svg" xmlns:xlink="http://www.w3.org/1999/xlink" x="0px" y="0px"
	 viewBox="0 0 800 800" style="enable-background:new 0 0 800 800;" xml:space="preserve">
<style type="text/css">
	.st0{fill:#E42E16;}
	.st1{fill:#FFFFFF;}
</style>
<circle class="st0" cx="400" cy="400" r="400"/>
<path class="st1" d="M692.8,678.4c-56,0-104.8,0-160.8,0c-7.8,0.2-15.2-2.8-23-2.5c-7.9-3-16.5-5-23.5-9.9
	c-9.1-5.4-14.3-14.9-20.4-23.3c-2.6-5.1-5.2-10.2-7.7-15.4c-1.7-4.3-3.4-8.6-5.4-12.8c-0.3-1.3-0.6-2.6-0.9-3.9
	c-4.6-12.3-8.9-24.7-13.9-36.9c-2.7-8-5.1-16.1-8.8-23.7l-0.9-3.9c-2.5-6.5-4.5-13.3-7.4-19.6c-1.9-5.8-3.9-11.7-6.4-17.2
	c-2.7-7.9-5.2-16-8.6-23.6c-2.7-7.9-5.2-15.9-8.6-23.6c-1.9-5.9-3.9-11.8-6.7-17.3l-0.9-3.9c-2.5-6.5-4.5-13.3-7.4-19.6
	c-1.9-5.8-3.9-11.7-6.5-17.2c-3-9.3-6.3-18.6-10.2-27.6c-0.5,2.8-1,5.5-1.5,8.3c-1.8,3.5-3.4,7.1-4.7,10.8
	c-1.5,3.5-2.9,7.1-4.3,10.7c-1.5,3.5-3,7.1-4.3,10.7c-1.5,3.5-3,7.1-4.3,10.7c-1.5,3.5-3,7.1-4.3,10.7c-1.5,3.5-3,7.1-4.2,10.8
	c-4,8.4-7.4,17.1-10.7,25.8c-1.6,3.5-3,7.1-4.3,10.7c-1.6,3.5-3,7.1-4.3,10.7c-1.6,3.5-3,7.1-4.3,10.7c-1.6,3.5-3,7.1-4.3,10.7
	c-1.5,3.5-3,7.1-4.3,10.7c-1.5,3.6-3,7.1-4.3,10.8c-1.8,4.2-3.5,8.4-5.1,12.6c-1.4,2.9-2.8,5.8-4.2,8.7c-6.8,11-14.5,21.7-25.6,28.7
	c-1.1,0.6-3.2,1.8-4.2,2.4c-8.4,2.2-16.7,6-25.6,4.6c-3.7-0.8-7.2-1.8-10.9-2.4c-6.4-3.6-12.5-8-17.5-13.4c-1.6-3.1-3.2-6.2-4.9-9.2
	c-2-14.6,0.9-29.1,7-42.3c1.5-3.5,3-7.1,4.3-10.7c1.5-3.5,3-7.1,4.3-10.7c1.6-3.5,3-7.1,4.3-10.7c1.5-3.5,3-7.1,4.3-10.7
	c1.5-3.5,3-7.1,4.3-10.7c1.5-3.6,3-7.1,4.3-10.7c1.5-3.6,3-7.1,4.3-10.7c1.5-3.5,3-7.1,4.3-10.7c1.5-3.5,3-7.1,4.3-10.8
	c5.5-11.9,10.2-24.3,15-36.5c1.5-3.5,3-7.1,4.3-10.7c1.5-3.5,3-7.1,4.3-10.7c1.5-3.5,3-7.1,4.3-10.7c1.5-3.5,3-7.1,4.3-10.7
	c1.5-3.5,3-7.1,4.3-10.7c1.5-3.5,3-7.1,4.3-10.7c1.5-3.5,3-7.1,4.3-10.7c1.5-3.5,3-7.1,4.3-10.8c6.3-14.8,11.7-29.9,15.8-45.4
	c3-11.3,4.7-23.8,0.4-34.9c-6.7-11.6-18-20.3-31.1-23.4c-13.7-1.9-28.1-0.9-40.9,4.8c-2.9,1.3-5.8,2.7-8.5,4.3
	c-22.2,13.9-41.2,35.6-46.7,61.8c-2,6.2-1.2,12.8-2.2,19.1c0.6,8.6,1.1,17.3,5.5,25c6.1,10.2,15.1,18.4,25.9,23.5
	c4.4,1.9,8.9,3.9,13.6,5.3c6.6,3.4,12.6,7.9,17.7,13.2c0.5,1.2,1.5,3.5,1.9,4.7c0.9,2.3,1.8,4.5,2.8,6.8
	c3.1,20.4-10.8,39.5-28.9,47.4c-16.5,4.8-34.6,3.9-51.2-0.2c-3.5-1.7-7.1-3.2-10.7-4.5c-3.6-2.3-7.3-4.4-11-6.4
	c-16.9-11.4-29.1-28.1-39.3-45.4c-2.1-5.2-4-10.4-6.4-15.4c-5.7-19.9-8.3-40.5-6.8-61.1c2.9-16.1,5.1-32.5,11.1-47.8
	c2.3-5,4.3-10.1,6.4-15.2c3-5,6.1-9.9,8.9-15c2.9-4.3,5.8-8.5,8.6-12.9c14.2-18.1,30.7-34.4,49.7-47.6c2.2-1.5,4.4-2.9,6.6-4.5
	c8.4-4.6,17.1-8.8,25.7-13c4.3-1.3,8.6-2.8,12.9-4.4c24.8-8.5,51.2-7.9,77-6.7c4.2,0.8,8.4,1.9,12.7,2.3
	c14.2,4.3,28.1,9.8,40.9,17.4c16.2,11.8,30.7,26.2,40.6,43.8c2.4,6.4,5,12.8,7.5,19.2c3.5,14.8,3,29.9,2.6,45
	c-1.4,16.8-6.5,32.9-11.3,49c-2.5,5.6-4.7,11.4-6.5,17.2c-3.4,6.7-5.7,13.9-9.5,20.5c6.6-8.7,15-15.9,22.4-24
	c12-14.4,25.9-27,38.6-40.7c14.9-18,32.9-33.1,47.7-51.2c26.8-26.3,50.9-55.2,78.5-80.7c4.4-2.8,8.8-5.8,13.2-8.7
	c11-6.2,23.7-6,36-4.9c9.6,4.7,19.1,11.7,22.9,22.1c3.6,8.1,2,17.1,2,25.7c-3.2,5.8-6,11.8-9.2,17.5c-1.5,2.2-3,4.4-4.4,6.6
	c-8.9,9-16.4,19.4-25.7,28c-10.5,11-21.7,21.4-31.4,33.2c-14.5,15.5-30.3,29.9-43.9,46.2c-10.9,11.3-22.1,22.3-32.9,33.7
	c-11.5,13.9-25,26.1-37.4,39.3c1.3,2.9,2.7,5.8,4,8.7c2.5,8,5.1,16,8.5,23.7c2.7,7.9,5.1,16,8.6,23.6c2.7,7.9,5.1,16,8.6,23.6
	c2.7,7.9,5.1,16,8.6,23.6c2.7,7.9,5.1,16,8.6,23.6c2.7,7.9,5.2,15.9,8.6,23.6c1.9,5.9,3.9,11.8,6.7,17.4c0.2,1,0.7,2.9,0.9,3.9
	c2.5,6.5,4.6,13.1,7.3,19.5c1.2,2.9,2.5,5.7,4,8.5c6.9,10.6,20,15.7,32.3,15.9c46.2,0,143,0,189.2,0L692.8,678.4z M703,594.6"/>
</svg>
